<svg version="1.1" id="Layer_1" xmlns="http://www.w3.org/2000/svg" xmlns:xlink="http://www.w3.org/1999/xlink" x="0px" y="0px"
	 width="100%" viewBox="0 0 1130 426" enable-background="new 0 0 1130 426" xml:space="preserve">
<path fill="transparent" opacity="1.000000" stroke="none" 
	d="
M719.000000,427.000000 
	C480.833344,427.000000 243.166672,426.989716 5.500041,427.093414 
	C1.750811,427.095062 0.902860,426.249420 0.905873,422.499939 
	C1.017583,283.500000 1.017583,144.499985 0.905873,5.500076 
	C0.902860,1.750573 1.750922,0.905983 5.500025,0.906983 
	C379.166656,1.006571 752.833313,1.006571 1126.500000,0.906983 
	C1130.249023,0.905983 1131.097168,1.750573 1131.094238,5.500076 
	C1130.982544,144.499985 1130.982422,283.500000 1131.094238,422.499939 
	C1131.097168,426.249420 1130.249390,427.097290 1126.499878,427.094177 
	C990.833313,426.981995 855.166687,427.000000 719.000000,427.000000 
z"/>
<path fill="#5DB77E" opacity="1.000000" stroke="none" 
	d="
M451.206299,195.858673 
	C443.198853,206.738937 436.884216,218.227890 429.909973,229.297714 
	C421.150940,243.200287 412.512207,257.179993 403.973175,271.218628 
	C402.308624,273.955231 401.383911,272.705200 400.071289,271.177612 
	C392.284393,262.115967 384.481659,253.067963 376.344910,243.936554 
	C375.526031,243.839661 375.073547,243.719788 374.356140,243.298828 
	C369.892639,239.491592 367.569855,234.388809 363.760437,230.432526 
	C361.483765,228.068130 359.887329,227.944733 357.500305,229.806458 
	C353.585632,232.859680 349.762939,236.030334 345.818512,239.039413 
	C343.916473,240.490402 342.299286,242.680557 339.149872,242.270630 
	C338.710480,241.774307 338.523224,241.379227 338.669617,241.132309 
	C344.309052,231.619781 348.645203,220.997665 357.962708,214.323578 
	C389.245850,191.915604 420.758728,169.828888 452.194214,147.634277 
	C459.399689,142.546982 466.380798,137.121414 474.297211,132.460999 
	C475.033600,132.365631 475.342377,130.985855 475.882904,132.172607 
	C475.470886,130.986465 475.095795,132.179260 474.401611,132.367950 
	C452.310089,144.031082 429.758606,153.944489 407.622986,164.716934 
	C389.520630,173.526581 371.224976,181.931213 353.167419,190.832077 
	C348.239349,193.261215 343.186523,195.396729 337.767212,197.595215 
	C334.639526,197.495270 333.081238,195.431381 331.545074,193.619324 
	C328.600098,190.145340 325.473785,186.823685 322.458466,182.940094 
	C318.458252,178.709641 315.336487,174.176193 311.078613,170.149536 
	C303.831604,161.629440 303.805817,161.519394 314.390930,159.039856 
	C326.366425,156.234634 338.194305,152.756973 350.794800,150.983047 
	C359.263184,150.911499 366.823395,148.146255 374.552277,146.373901 
	C414.908417,137.119583 455.221252,127.676277 495.550751,118.305695 
	C496.176147,118.160385 496.822205,118.103951 498.823273,117.796089 
	C486.263550,138.186874 474.241455,157.704819 462.130066,177.548279 
	C459.532440,180.268539 456.323853,179.630005 453.508911,179.305725 
	C448.657593,178.746872 443.890594,179.581802 439.090607,179.431839 
	C436.077271,179.337677 434.532776,180.655045 434.013763,183.649277 
	C433.301208,187.760117 433.461609,191.865112 433.447754,196.473404 
	C435.048035,192.683670 436.219116,189.266571 437.911591,186.073807 
	C439.094421,183.842392 440.517242,181.823578 442.672791,180.413544 
	C445.063202,178.849884 447.737793,178.406525 450.275055,179.530121 
	C452.624725,180.570633 452.399170,183.138931 452.368988,185.256866 
	C452.319763,188.710693 453.051239,192.251022 451.206299,195.858673 
z"/>
<path fill="#404D42" opacity="1.000000" stroke="none" 
	d="
M100.374046,239.264160 
	C98.062286,223.448288 100.697922,208.344696 104.543259,193.373016 
	C106.227707,186.814636 108.684906,180.516403 111.652664,174.101761 
	C116.804230,175.066284 121.433456,173.965729 126.219101,173.024323 
	C138.295486,170.648727 150.533447,169.152008 162.617752,166.757141 
	C165.187912,166.247772 167.589722,165.755035 168.807526,163.209534 
	C171.193314,158.222687 175.571655,156.089828 180.543381,154.720627 
	C218.276154,144.329147 256.023499,133.994522 294.228394,125.435966 
	C294.553619,125.363106 294.876740,125.281006 295.201935,125.208359 
	C301.740631,123.747597 308.213989,122.183167 311.662567,115.025551 
	C314.663788,115.230858 316.760162,116.630104 318.914856,118.523727 
	C319.453033,119.414566 319.807831,120.254318 319.304260,120.666054 
	C314.151398,124.879311 310.753357,131.040466 303.449158,132.859528 
	C274.878845,139.974731 246.501556,147.817932 218.231323,156.063995 
	C206.737167,159.416718 195.398117,163.263718 183.857574,166.448257 
	C172.919220,169.466599 171.929428,171.010361 173.846664,182.668365 
	C175.025589,188.804138 176.042038,194.567398 177.648468,200.624268 
	C177.757675,201.577393 177.684296,202.114151 177.276978,202.974609 
	C174.270050,204.983566 171.586258,204.008682 168.932175,202.975067 
	C161.656082,200.141464 154.437485,197.147293 146.929977,194.955582 
	C140.610046,193.110550 139.465073,193.938904 139.372513,200.363052 
	C139.319855,204.017685 139.349258,207.673553 139.386810,211.735809 
	C139.553574,218.552170 141.226028,224.774811 141.710876,231.571655 
	C141.585022,232.276672 141.490662,232.550873 141.104019,233.150116 
	C132.174362,236.016968 123.274658,237.247101 114.393417,238.415024 
	C109.880119,239.008560 105.467293,241.646713 100.374046,239.264160 
z"/>
<path fill="#9CE670" opacity="1.000000" stroke="none" 
	d="
M434.392212,288.877014 
	C448.628479,289.331726 462.499390,287.591125 476.177307,290.105927 
	C489.774841,292.605957 495.494843,305.270294 488.070557,315.755066 
	C485.109406,319.936890 480.333557,321.181366 475.030060,323.376282 
	C479.203979,324.270782 482.425232,325.119232 485.460236,326.586060 
	C491.882568,329.690002 494.889832,334.981995 494.758331,341.823090 
	C494.622650,348.883331 491.938782,354.777039 485.035156,357.952972 
	C480.601166,359.992767 475.891510,360.938721 471.087280,361.437958 
	C459.474548,362.644836 447.822571,361.744110 436.190643,361.977692 
	C434.579315,362.010071 432.881805,362.387665 431.345459,361.479065 
	C431.378418,361.141541 431.426025,360.563843 431.436005,360.564484 
	C437.528961,360.960815 437.377350,357.071198 437.340363,352.634827 
	C437.182098,333.668732 437.237488,314.700470 437.309601,295.733337 
	C437.320831,292.778625 437.284210,290.312714 433.252747,290.819855 
	C432.561615,290.906769 431.269745,290.960846 431.477783,289.766357 
	C431.704773,288.463196 433.059174,289.072205 434.392212,288.877014 
z"/>
<path fill="#465348" opacity="1.000000" stroke="none" 
	d="
M177.360336,201.116730 
	C174.076080,195.654541 173.966965,189.652985 172.999359,183.425522 
	C173.095459,180.010437 175.158051,178.714142 177.551453,177.683136 
	C187.031067,173.599609 196.832809,170.383301 206.578125,167.034271 
	C238.187042,156.171616 270.283875,146.861603 302.538513,138.189331 
	C311.615845,135.748734 318.312286,129.924805 326.655579,125.933090 
	C332.907562,128.099854 336.271912,133.196609 340.519714,137.705948 
	C331.790100,142.962601 323.558411,148.896545 315.109558,154.491333 
	C312.274689,156.368561 309.588470,157.589355 306.520416,154.958282 
	C304.787628,153.472305 302.807404,153.985519 300.827850,154.577072 
	C262.663635,165.982056 225.210114,179.321518 188.863525,195.675018 
	C185.078323,197.378082 181.537384,199.580719 177.360336,201.116730 
z"/>
<path fill="#9DE771" opacity="1.000000" stroke="none" 
	d="
M791.279419,184.671356 
	C795.212158,197.063721 799.013184,209.082001 802.814270,221.100266 
	C803.109985,221.108490 803.405701,221.116699 803.701416,221.124908 
	C807.002747,208.100433 810.294250,195.073456 813.616028,182.054199 
	C814.106201,180.132721 813.113098,179.705643 811.524353,179.712906 
	C809.504700,179.722153 807.484985,179.715164 805.465271,179.715164 
	C805.487915,179.238327 805.510559,178.761505 805.533203,178.284668 
	C811.175476,178.284668 816.817688,178.284668 822.459900,178.284668 
	C814.278442,179.308212 815.710876,186.581757 814.262695,191.614090 
	C809.713196,207.422714 805.601562,223.359131 801.480896,239.287582 
	C800.788269,241.964981 799.842468,243.187637 796.847717,243.075272 
	C793.949463,242.966522 791.969910,242.763458 790.949829,239.365692 
	C787.843079,229.016907 784.349243,218.784180 780.991821,208.510941 
	C780.437012,206.813492 779.810852,205.139404 778.246765,203.384827 
	C775.538757,212.632797 772.827209,221.879730 770.125061,231.129440 
	C769.426025,233.522369 768.707947,235.911484 768.087280,238.325150 
	C767.468262,240.732773 767.316162,243.116302 763.649170,243.087234 
	C760.222351,243.060074 758.299866,242.293381 757.046814,238.738861 
	C750.633789,220.546738 743.862854,202.481064 737.378296,184.313629 
	C736.350647,181.434555 735.191345,179.228958 731.849304,178.408905 
	C741.376099,178.408905 750.902893,178.408905 760.432922,178.408905 
	C760.420227,178.545471 760.388916,179.119873 760.363647,179.119598 
	C754.562012,179.059021 755.577148,182.091690 756.930481,185.909668 
	C761.144714,197.798264 765.086670,209.783356 770.108765,221.776657 
	C772.408691,213.676102 775.668701,205.692093 776.671143,197.434052 
	C777.339722,191.926254 774.042175,186.250580 771.979736,180.818314 
	C771.193481,178.747543 768.404419,180.633636 767.153625,178.280777 
	C776.466675,178.280777 785.478027,178.280777 794.489319,178.280777 
	C791.768677,179.588043 788.680420,180.294037 791.279419,184.671356 
z"/>
<path fill="#4B584D" opacity="1.000000" stroke="none" 
	d="
M176.997604,201.333954 
	C187.008987,193.993591 198.480347,189.986893 209.598816,185.295883 
	C233.622986,175.159790 258.332275,166.869812 283.016632,158.533798 
	C289.455170,156.359497 296.082092,154.745667 302.535339,152.610962 
	C304.669983,151.904831 306.125092,152.287766 307.348297,153.884644 
	C309.276855,156.402359 311.136902,155.675980 313.318665,154.186768 
	C320.313538,149.412277 327.402863,144.776367 334.423584,140.039337 
	C336.109772,138.901611 337.779449,137.866211 340.278473,137.994843 
	C344.538879,141.717987 347.679321,146.061966 351.028503,150.682068 
	C345.925995,154.022552 339.838318,154.166077 334.162048,155.729019 
	C325.109650,158.221542 315.884033,160.084961 306.316925,162.310913 
	C308.332458,164.756821 310.180420,166.999390 312.129944,169.567596 
	C311.691620,172.081146 309.821655,173.011292 308.148071,174.043991 
	C303.853729,176.693802 302.134155,175.961288 301.834412,170.895081 
	C301.606445,167.042084 300.254059,166.400787 296.814484,167.629440 
	C267.474792,178.109894 238.450287,189.330658 210.460449,203.110031 
	C203.566544,206.503876 197.142197,210.673660 190.396835,214.295563 
	C188.128433,215.513611 186.700775,217.616776 184.449982,219.344589 
	C181.462067,218.972580 180.870255,216.689209 180.167557,214.728790 
	C178.881866,211.141937 177.251450,207.639343 176.938812,203.386398 
	C176.999832,202.555725 176.999054,202.111435 176.997604,201.333954 
z"/>
<path fill="#364338" opacity="1.000000" stroke="none" 
	d="
M128.185440,147.267136 
	C132.451172,139.859116 138.462952,134.038330 144.844696,128.152679 
	C150.274612,125.197647 156.110794,125.295990 161.610825,124.290100 
	C178.780441,121.149940 196.035660,118.452835 213.213211,115.358345 
	C224.010742,113.413208 234.769394,111.172005 245.525650,108.978264 
	C258.718170,106.287666 271.983612,103.947327 285.528748,100.967163 
	C292.679230,102.713326 298.627686,106.185501 304.900543,109.575592 
	C305.247375,112.759346 303.049438,112.926239 301.124908,113.288918 
	C274.832825,118.243599 248.811920,124.447784 222.720490,130.322784 
	C194.519699,136.672745 166.437759,143.587753 137.798187,147.803879 
	C134.675064,148.263626 131.559433,148.952469 128.185440,147.267136 
z"/>
<path fill="#9CE670" opacity="1.000000" stroke="none" 
	d="
M708.766479,360.047333 
	C709.635132,360.249725 710.403381,360.347168 710.477905,360.628387 
	C710.935303,362.355225 709.468994,361.954773 708.685242,361.961853 
	C702.188599,362.020782 695.690186,362.064514 689.194336,361.972992 
	C686.612122,361.936584 683.957092,362.508942 681.400208,361.510834 
	C681.510986,361.084290 681.599487,360.538055 681.659546,360.541138 
	C686.849915,360.809479 687.020386,357.675812 686.986084,353.594086 
	C686.812439,332.937683 686.806335,312.278168 686.989075,291.621918 
	C687.026367,287.402710 686.767090,284.249847 681.310669,285.019806 
	C681.754211,282.614136 683.387024,283.335297 684.460571,283.319916 
	C690.290283,283.236298 696.126892,283.426880 701.950562,283.221771 
	C705.211060,283.106995 706.246765,284.181000 706.205078,287.495636 
	C706.033325,301.154327 706.133606,314.816406 706.133789,328.477264 
	C706.133850,330.108826 706.133789,331.740356 706.133789,334.979492 
	C714.906433,327.734985 722.674500,321.320068 731.262390,314.228180 
	C727.515564,314.061890 724.885559,313.945160 722.255493,313.828430 
	C722.282593,313.415283 722.309692,313.002136 722.336792,312.588989 
	C728.743286,312.588989 735.149719,312.588989 741.586365,312.588989 
	C741.525024,312.997223 741.464417,313.539795 741.440796,313.538208 
	C734.056641,313.036835 729.978394,318.557068 725.010681,322.481720 
	C723.176941,323.930481 722.691833,325.235565 723.909729,327.538055 
	C729.045471,337.247650 734.083923,347.014740 738.851990,356.908295 
	C739.974487,359.237396 741.805481,360.021912 743.682190,361.554871 
	C734.308044,361.554871 724.933960,361.554871 715.232666,361.554871 
	C716.250366,359.356415 718.197815,360.566528 719.614380,359.335968 
	C716.138123,352.180450 712.594666,344.899963 709.069397,337.610657 
	C708.684448,336.814636 708.205383,336.026520 707.264465,336.412628 
	C706.786682,336.608643 706.276489,337.430176 706.273254,337.971863 
	C706.231812,344.961212 706.237061,351.951813 706.354797,358.940002 
	C706.370300,359.865387 707.500427,359.974335 708.766479,360.047333 
z"/>
<path fill="#626F64" opacity="1.000000" stroke="none" 
	d="
M219.308167,367.439819 
	C209.113403,366.573364 199.618973,363.977051 190.039139,360.391357 
	C190.511703,357.430908 192.925522,356.890015 195.079712,356.109344 
	C208.384140,351.288055 221.837585,346.900848 235.238846,342.361115 
	C238.051605,341.408295 241.035400,340.698547 243.390045,338.027344 
	C247.554535,336.255432 251.152008,338.497040 254.913834,338.646454 
	C257.054443,338.731445 259.157440,339.321228 262.184143,339.420990 
	C260.157837,337.010986 257.922882,336.465759 255.956223,335.580658 
	C234.688370,326.009125 213.260864,316.794312 192.088318,307.010406 
	C189.921631,306.009155 187.058792,305.452240 187.809601,301.624146 
	C194.273438,298.684814 200.919983,298.345001 207.944397,298.030121 
	C219.864212,305.247375 232.660706,309.678741 244.889511,315.298431 
	C260.160309,322.316071 275.583099,329.008118 290.946503,335.826752 
	C292.614716,336.567108 294.418365,337.201904 294.633789,339.806213 
	C292.238403,343.175446 288.573334,343.504120 285.350189,344.435974 
	C264.788422,350.380585 244.918945,358.380127 224.506699,364.757477 
	C222.750946,365.306000 221.248459,366.383453 219.308167,367.439819 
z"/>
<path fill="#303C31" opacity="1.000000" stroke="none" 
	d="
M285.697357,100.750259 
	C282.643951,103.428993 278.683014,104.387497 274.848053,104.860519 
	C265.000000,106.075241 255.503815,108.988762 245.753387,110.492348 
	C230.117508,112.903503 214.786209,116.848587 199.120224,119.127022 
	C185.437164,121.117058 171.883072,123.984856 158.255508,126.370659 
	C154.205688,127.079659 150.100113,127.470200 145.594574,128.026947 
	C165.340683,109.428169 189.078003,98.432175 216.125305,93.873329 
	C239.922638,89.862267 262.876099,92.634315 285.697357,100.750259 
z"/>
<path fill="#9FE774" opacity="1.000000" stroke="none" 
	d="
M1051.695435,212.463211 
	C1051.719482,219.745712 1051.710815,226.574799 1051.734253,233.403763 
	C1051.746094,236.856445 1050.599365,241.022995 1056.296387,241.591095 
	C1048.009399,241.591095 1039.722534,241.591095 1030.869141,241.591095 
	C1032.403076,239.928619 1034.368530,239.231384 1034.286255,236.590820 
	C1033.985474,226.939285 1034.176025,217.273178 1034.107422,207.613083 
	C1034.092407,205.503052 1034.396484,202.884979 1031.696045,202.181885 
	C1028.713257,201.405304 1027.157837,203.691284 1025.905884,205.908981 
	C1024.673218,208.092545 1023.884338,210.424561 1023.891174,213.023270 
	C1023.911804,220.850510 1023.881897,228.678864 1023.758484,236.504974 
	C1023.718750,239.022949 1024.232788,240.834351 1027.202026,241.451294 
	C1018.722717,241.451294 1010.243408,241.451294 1001.764099,241.451294 
	C1007.416199,240.813202 1006.234924,236.617874 1006.232849,233.026184 
	C1006.222839,215.537170 1006.164246,198.047729 1006.282837,180.559509 
	C1006.306274,177.101700 1006.413635,174.092102 1001.378967,174.307312 
	C1004.924500,172.261627 1008.501343,173.113495 1011.906311,173.079315 
	C1023.785034,172.960037 1023.785706,173.033554 1023.785706,185.003189 
	C1023.785706,191.112747 1023.785767,197.222305 1023.785767,204.695297 
	C1027.722412,199.208298 1032.220337,197.205414 1037.608398,197.205612 
	C1045.954956,197.205887 1049.869629,201.343201 1051.695435,212.463211 
z"/>
<path fill="#9EE772" opacity="1.000000" stroke="none" 
	d="
M602.110962,334.000305 
	C602.111023,329.504608 602.111206,325.508759 602.110901,321.512939 
	C602.110413,314.956512 602.110229,314.956512 596.711853,312.071442 
	C599.704468,312.071442 602.697021,312.071442 605.689636,312.071442 
	C608.520020,312.071442 611.350403,312.071350 614.180786,312.071442 
	C621.577148,312.071594 621.577148,312.071655 622.217041,319.960968 
	C626.874695,311.649658 633.778809,309.881714 641.962708,311.612610 
	C648.408813,312.975952 652.061951,317.033539 653.030151,323.508972 
	C654.540894,333.613007 653.491638,343.783325 653.743347,353.920471 
	C653.879517,359.405121 653.772522,359.407776 658.723694,361.391632 
	C649.286987,361.391632 639.850342,361.391632 630.413696,361.391632 
	C634.064148,360.454987 634.110413,357.788635 634.069702,354.734680 
	C633.929688,344.247406 634.022095,333.757263 633.974426,323.268402 
	C633.961609,320.436096 634.168762,316.982880 630.526367,316.444733 
	C627.125732,315.942322 625.259949,318.688568 623.959534,321.555878 
	C622.565735,324.629211 621.866211,327.834259 621.887146,331.231689 
	C621.934326,338.889954 621.926697,346.549072 621.863403,354.207214 
	C621.838074,357.271606 621.189514,360.557343 625.614014,361.598938 
	C616.011108,361.598938 606.408203,361.598938 596.788757,361.598938 
	C596.739136,359.760895 598.021545,359.996735 598.876221,360.076324 
	C601.667786,360.336182 602.181152,358.893341 602.146729,356.476715 
	C602.042297,349.152527 602.110168,341.825867 602.110962,334.000305 
z"/>
<path fill="#6D7A6F" opacity="1.000000" stroke="none" 
	d="
M374.795471,242.760162 
	C375.404266,243.042862 375.630981,243.217911 375.898499,243.668304 
	C374.307220,259.417969 370.206848,274.328156 363.615479,288.852661 
	C352.123657,294.690735 340.084717,297.455933 327.785065,299.395294 
	C321.557770,300.377167 315.251007,300.194946 308.595947,300.999634 
	C303.578583,299.996643 298.716003,301.075500 293.880035,299.039215 
	C290.950287,295.677063 293.858093,294.400757 295.737793,293.100861 
	C302.992004,288.084320 310.379608,283.261871 317.727051,278.381592 
	C333.665009,267.795380 349.760834,257.449036 365.674835,246.825317 
	C368.373596,245.023712 370.884674,242.609116 374.795471,242.760162 
z"/>
<path fill="#9CE471" opacity="1.000000" stroke="none" 
	d="
M209.312378,298.892120 
	C202.189651,299.744232 195.458496,300.703613 188.365570,301.852997 
	C186.064545,303.726685 183.499390,303.401917 180.816376,304.228821 
	C163.475510,305.901886 146.584625,307.494476 129.596024,307.532593 
	C127.272141,307.537811 124.913628,307.681549 122.361725,306.248138 
	C103.353546,305.352844 84.764008,304.469299 66.626099,299.857239 
	C57.303734,297.486786 47.973419,294.893372 40.696781,287.983185 
	C34.797173,282.380646 34.167271,275.195587 39.122677,268.749207 
	C44.930885,261.193390 52.726391,256.180511 61.487572,251.963287 
	C62.305702,251.672684 62.702732,251.747696 62.983353,252.540894 
	C61.402069,254.376938 59.841064,255.845047 58.306381,257.340149 
	C47.225002,268.135651 48.752289,278.687653 62.410980,285.888550 
	C73.575050,291.774292 85.710793,294.272675 98.034859,296.030518 
	C103.907669,296.868134 109.772652,297.975250 116.082535,297.465088 
	C117.606827,296.471161 118.965805,296.363281 120.278893,296.521698 
	C137.404205,298.587341 154.522934,297.086365 172.092285,296.508972 
	C180.946030,295.447388 189.435333,295.153442 198.245331,293.786987 
	C205.167633,293.345490 211.526550,291.897308 218.390457,291.162903 
	C223.885300,290.068115 229.031464,289.370026 234.493530,288.142700 
	C239.433228,287.554199 243.851822,286.453949 248.643799,285.166199 
	C255.895340,283.972382 262.486145,281.811218 269.161682,279.986664 
	C271.057159,279.468628 272.916779,278.646088 275.304993,279.481567 
	C276.671204,282.919891 273.883331,283.121246 272.116089,283.768646 
	C267.154541,285.586243 262.118530,287.205780 256.706726,288.933594 
	C253.780685,289.557983 251.332718,290.425354 248.466064,291.253113 
	C242.707550,292.669769 237.359070,294.110474 231.553497,295.359131 
	C224.028244,296.742889 217.130875,299.454254 209.312378,298.892120 
z"/>
<path fill="#3A473C" opacity="1.000000" stroke="none" 
	d="
M127.567154,147.093033 
	C140.391830,147.002396 152.427094,143.700668 164.610611,141.572037 
	C187.563843,137.561768 210.066788,131.467896 232.765030,126.272797 
	C254.024567,121.406990 275.377716,116.951195 296.665863,112.208298 
	C299.329834,111.614784 302.442505,113.222824 304.863861,110.240959 
	C307.395233,110.339119 309.247467,111.621315 310.980469,113.636871 
	C309.187225,119.310646 304.172546,119.800018 299.752045,120.848083 
	C288.439758,123.530174 277.098389,126.163490 265.752106,128.615768 
	C247.098495,132.647385 228.692871,137.649643 210.107742,141.926376 
	C199.123581,144.453995 187.666962,146.212631 177.449722,150.796310 
	C160.643066,158.336182 142.473969,158.421234 125.086014,162.548569 
	C122.762115,163.100174 120.413589,162.970764 118.875801,160.303864 
	C121.717949,155.669830 124.484863,151.446198 127.567154,147.093033 
z"/>
<path fill="#3C493E" opacity="1.000000" stroke="none" 
	d="
M118.627823,160.052521 
	C122.816147,163.582306 126.807671,160.467545 130.640060,159.927628 
	C141.583405,158.385925 152.764374,157.477539 163.302475,154.423996 
	C172.889587,151.646057 182.070862,147.089462 191.932083,145.208023 
	C199.244217,143.812927 206.089996,140.862885 213.509674,139.872681 
	C219.859665,139.025238 226.051483,136.878021 232.173233,135.103577 
	C240.269012,132.756958 248.590271,131.546799 256.667877,129.108047 
	C266.880859,126.024582 277.511047,124.327095 287.953979,121.999077 
	C292.941772,120.887161 297.882294,119.535110 302.902435,118.606750 
	C306.033447,118.027763 308.333588,116.377899 310.786102,114.106277 
	C311.457367,113.968849 311.727081,114.124084 311.979858,114.654892 
	C310.303497,124.733734 301.725311,125.181519 294.659119,126.751961 
	C277.398987,130.587967 260.365387,135.302353 243.167450,139.345169 
	C222.730148,144.149445 202.746140,150.578812 182.403885,155.692062 
	C176.736160,157.116699 171.554291,158.854538 169.434586,165.065430 
	C168.908508,166.606827 167.603119,167.528427 166.087845,167.776230 
	C157.143402,169.238922 148.171158,170.533203 139.232697,172.030090 
	C133.707001,172.955444 128.206619,174.056152 122.729225,175.237396 
	C119.165794,176.005875 115.663864,177.065475 112.142700,174.251984 
	C113.056511,168.868698 116.474533,164.908493 118.627823,160.052521 
z"/>
<path fill="#9EE772" opacity="1.000000" stroke="none" 
	d="
M583.180542,226.743042 
	C583.393127,229.697937 583.623779,232.180984 583.810852,234.667328 
	C583.947632,236.484772 584.538025,237.966385 586.564148,238.265305 
	C588.356750,238.529800 589.882812,237.908951 590.881775,236.374008 
	C592.167358,234.398666 593.028870,232.270386 593.030029,229.837967 
	C593.034058,221.014893 592.911987,212.186386 593.198730,203.371689 
	C593.299011,200.288864 591.422852,199.991180 589.258850,199.505722 
	C589.299927,199.091156 589.341003,198.676575 589.382080,198.262009 
	C595.813965,198.262009 602.256104,198.055756 608.672363,198.372482 
	C610.956604,198.485229 610.132751,201.020203 610.142517,202.520691 
	C610.211670,213.175186 610.280640,223.831848 610.121460,234.484421 
	C610.070007,237.932739 610.021362,240.895920 615.142151,240.500916 
	C614.979675,240.956848 614.817200,241.412781 614.654724,241.868713 
	C608.241028,241.868713 601.818970,242.055237 595.417969,241.770340 
	C593.090698,241.666779 594.836609,238.414993 592.852234,237.105988 
	C590.763428,239.942429 588.033752,241.972961 584.520813,242.687317 
	C573.743042,244.878906 566.477661,239.216034 566.171631,228.163315 
	C565.968994,220.843475 566.046143,213.512939 566.142395,206.189087 
	C566.188354,202.691254 566.844360,199.020004 560.835876,199.569214 
	C561.052368,199.119843 561.268860,198.670471 561.485352,198.221100 
	C568.143616,198.221100 574.807129,198.070160 581.457458,198.299774 
	C583.915344,198.384628 583.131409,200.801819 583.145020,202.299332 
	C583.217163,210.289886 583.179565,218.281433 583.180542,226.743042 
z"/>
<path fill="#9CE670" opacity="1.000000" stroke="none" 
	d="
M450.905975,196.591095 
	C450.934418,191.976517 450.790985,187.810440 451.046478,183.668961 
	C451.284790,179.806259 449.067322,179.523117 446.336182,180.139145 
	C443.042114,180.882141 440.823944,183.116974 439.459564,186.148178 
	C437.329224,190.881149 435.270813,195.646500 432.717621,200.273880 
	C431.723358,193.472260 431.936951,186.821808 432.967194,180.163239 
	C433.407043,177.320496 435.490723,178.004395 437.165497,177.988907 
	C445.144165,177.915054 453.123718,177.933731 461.571838,177.896606 
	C469.205444,177.868958 476.370270,177.841599 483.534760,177.878754 
	C484.934204,177.886002 486.817627,177.433304 486.937653,179.715027 
	C487.299957,186.601349 487.574554,193.492294 487.945557,201.769104 
	C484.537292,198.454453 484.307861,195.196289 483.076019,192.496140 
	C481.210602,188.407227 479.795471,184.050949 475.843475,181.362946 
	C474.156219,180.215332 472.130890,179.351471 470.181335,180.101425 
	C467.908539,180.975708 468.983612,183.289856 468.975159,184.933121 
	C468.891296,201.261658 469.080750,217.593262 468.822388,233.918137 
	C468.751129,238.420776 469.457825,241.003296 474.620819,240.076508 
	C475.167236,239.978424 475.800812,240.365906 476.353699,241.378204 
	C465.393494,241.378204 454.433289,241.378204 443.137909,241.378204 
	C443.602570,240.832993 443.932159,240.188278 444.154083,240.223434 
	C450.480042,241.225601 451.290192,237.985550 451.087555,232.535110 
	C450.648315,220.720963 450.924530,208.880203 450.905975,196.591095 
z"/>
<path fill="#414E43" opacity="1.000000" stroke="none" 
	d="
M327.020203,125.543991 
	C320.394958,130.878326 314.151184,136.003799 305.680603,138.540497 
	C290.771362,143.005325 275.718658,146.973114 260.793518,151.369247 
	C242.567886,156.737534 224.555466,162.741455 206.439545,168.426910 
	C196.483994,171.551300 186.796341,175.529388 176.988159,179.123230 
	C175.298431,179.742355 174.463791,181.208069 173.276733,182.799469 
	C171.115280,180.803665 171.462204,177.835052 171.384552,175.465607 
	C171.278915,172.241089 172.203079,168.992462 176.569809,167.527786 
	C193.325470,161.907684 210.246902,156.845673 227.236252,152.027969 
	C250.589828,145.405594 274.043762,139.136780 297.461334,132.740677 
	C299.844788,132.089661 302.254547,131.495819 304.686218,131.070648 
	C307.467194,130.584396 309.766541,129.464813 311.052155,126.856209 
	C312.759674,123.391464 317.047943,122.760811 319.006287,119.186752 
	C322.149658,120.402992 325.009155,122.252808 327.020203,125.543991 
z"/>
<path fill="#9DE771" opacity="1.000000" stroke="none" 
	d="
M542.798584,311.517456 
	C547.213989,310.570709 551.323486,311.397430 555.348083,312.356445 
	C561.923157,313.923157 565.309082,318.465210 566.061768,325.678223 
	C566.858582,333.314819 566.615479,340.963928 566.670898,348.612061 
	C566.682983,350.275787 566.680237,351.942932 566.789368,353.601624 
	C566.889221,355.120056 567.096497,356.743744 568.997009,357.035675 
	C571.160706,357.368073 571.942017,355.696350 572.387329,354.089630 
	C572.988037,351.922668 573.284607,349.671448 573.810364,346.944580 
	C575.917664,352.673737 573.532227,359.257629 568.925110,361.608826 
	C562.397217,364.940277 553.000671,362.951233 548.179382,357.163513 
	C547.662781,356.543365 547.284729,356.299713 546.086548,356.687012 
	C544.898865,352.412079 546.190613,348.286591 545.672485,344.144897 
	C545.552673,343.186981 545.752441,341.914825 544.565613,341.608276 
	C543.151123,341.242920 542.221008,342.434662 542.066101,343.505707 
	C541.368958,348.326752 539.641724,353.293182 543.559265,357.986847 
	C543.986877,358.401245 544.138245,358.587524 544.373230,359.124023 
	C540.587463,363.348419 532.304504,364.271423 526.405090,361.485809 
	C521.705994,359.267059 519.600769,355.181061 519.979736,349.126801 
	C520.317749,343.727448 523.521179,340.657074 528.365295,339.207367 
	C533.154297,337.774170 538.147705,337.236328 543.126770,337.288788 
	C546.227661,337.321472 547.196899,336.223022 547.022949,333.227386 
	C546.725098,328.098236 547.266479,322.938171 546.171326,317.827881 
	C545.767212,315.942566 545.224609,314.328156 543.325073,312.976013 
	C542.660095,312.513824 542.530212,312.162628 542.798584,311.517456 
z"/>
<path fill="#6B776D" opacity="1.000000" stroke="none" 
	d="
M219.396484,367.773285 
	C219.470154,364.835205 221.745987,364.185120 223.996674,363.506775 
	C245.034744,357.165680 265.304688,348.501587 286.570587,342.823578 
	C288.879120,342.207214 291.044373,340.892944 293.751465,340.287781 
	C298.412201,337.531189 303.505951,337.769592 308.211273,336.454285 
	C309.948730,335.968597 311.684906,335.475372 313.804443,334.892426 
	C319.320740,333.274048 324.336334,331.414703 329.696716,329.348877 
	C331.129883,328.950531 332.174469,328.959503 333.498230,329.673401 
	C320.625580,343.794678 304.583710,353.247833 286.896027,360.039429 
	C265.229706,368.358704 242.829422,370.868011 219.396484,367.773285 
z"/>
<path fill="#4B584D" opacity="1.000000" stroke="none" 
	d="
M122.051682,306.352936 
	C141.389832,306.052368 160.745758,304.526001 180.543274,302.925354 
	C186.105240,306.978088 191.804413,310.338165 195.500427,316.288452 
	C194.660385,318.758850 192.781815,319.476929 190.924240,320.209229 
	C177.980865,325.311829 164.542679,329.003601 151.562149,334.003693 
	C150.029572,334.594055 148.424881,335.155212 146.426178,334.192932 
	C136.598557,326.206268 128.952744,316.814575 122.051682,306.352936 
z"/>
<path fill="#9DE771" opacity="1.000000" stroke="none" 
	d="
M837.702759,237.305466 
	C830.771729,229.384323 829.332458,216.942612 834.082764,208.095398 
	C838.494995,199.877899 848.319702,196.091782 860.665649,197.851303 
	C870.821045,199.298645 876.121582,204.453659 877.744568,214.461212 
	C879.667725,226.319946 875.527466,236.925903 866.744019,240.498642 
	C856.826111,244.532822 846.953430,244.464737 837.702759,237.305466 
z"/>
<path fill="#4C594E" opacity="1.000000" stroke="none" 
	d="
M334.109558,329.781799 
	C332.792114,329.963959 331.778656,329.995819 330.385071,330.041870 
	C312.623840,321.623352 294.725647,314.335144 277.208160,306.208588 
	C268.746918,302.283264 259.932800,299.147522 251.700714,294.729248 
	C250.014984,293.824524 247.820526,293.328430 247.815613,290.511719 
	C250.426834,289.463074 252.828918,288.729889 255.613602,288.003540 
	C267.101868,290.527832 277.667969,295.143616 289.070862,296.511566 
	C290.215424,296.648834 291.371216,296.827454 292.684387,297.746735 
	C297.612396,299.650787 302.557220,298.319275 307.582520,299.756042 
	C316.975006,304.810913 326.445862,308.719757 335.842987,312.787781 
	C338.876251,314.100922 341.995392,315.244324 344.801331,317.680634 
	C342.212891,322.553650 338.297516,326.078247 334.109558,329.781799 
z"/>
<path fill="#536055" opacity="1.000000" stroke="none" 
	d="
M146.240631,334.265137 
	C159.244141,330.375275 171.934830,325.444122 184.777344,320.985809 
	C188.146744,319.816132 192.016312,319.472656 194.849701,316.296234 
	C195.536911,315.523163 196.219498,315.210083 196.801727,315.564728 
	C203.733032,319.786957 211.084045,323.343384 217.474792,328.890625 
	C216.911530,332.198639 214.460190,332.964325 212.125397,333.830048 
	C199.846756,338.382874 187.392593,342.429626 174.976898,346.582184 
	C172.465271,347.422241 170.215698,348.941345 167.169067,349.212952 
	C159.245911,345.300201 152.778198,339.978546 146.240631,334.265137 
z"/>
<path fill="#5C695E" opacity="1.000000" stroke="none" 
	d="
M166.990509,349.391968 
	C172.714050,344.903076 179.900223,343.874847 186.490921,341.368195 
	C195.118835,338.086670 203.900497,335.203552 212.656540,332.270020 
	C214.302658,331.718506 215.708435,331.064423 216.847321,329.309814 
	C217.833450,328.209015 218.892700,328.146790 219.799347,328.543304 
	C227.551407,331.933716 235.810059,333.949402 243.775665,337.674805 
	C244.444916,340.540649 242.546555,341.012878 240.812515,341.609650 
	C227.817856,346.081818 214.801880,350.493225 201.836960,355.049927 
	C197.961426,356.412048 193.874100,357.334930 190.110199,359.961456 
	C181.692551,357.843658 174.422409,353.799896 166.990509,349.391968 
z"/>
<path fill="#9FE774" opacity="1.000000" stroke="none" 
	d="
M508.228577,219.000366 
	C508.228577,214.169235 507.999207,209.822037 508.298828,205.511627 
	C508.550659,201.888290 508.044586,199.306305 502.009979,199.763657 
	C506.264008,197.390717 509.227966,198.308670 512.014771,198.149292 
	C514.837524,197.987854 517.683960,198.241959 520.506836,198.081818 
	C524.198120,197.872421 527.158020,198.218506 525.153259,204.597763 
	C529.141541,200.711746 532.012329,197.858582 536.334778,197.494156 
	C540.232544,197.165512 543.728455,197.921707 545.949524,201.319672 
	C548.332825,204.965714 548.270874,208.937515 545.996521,212.631760 
	C544.243286,215.479584 541.351196,216.290802 538.155457,215.822556 
	C535.312012,215.405899 533.056763,213.921890 532.323669,211.062759 
	C531.628479,208.351242 531.637878,205.776993 535.341003,204.876007 
	C536.572998,204.576263 536.659180,202.933823 535.913025,201.890839 
	C534.980591,200.587448 533.453186,200.776733 532.281555,201.396774 
	C528.385010,203.458755 526.459656,207.256241 526.218628,211.214493 
	C525.682800,220.013321 525.840759,228.858093 525.839294,237.684158 
	C525.838562,241.919052 530.026550,238.994507 531.968933,241.404938 
	C522.275330,241.404938 513.020386,241.404938 503.765472,241.404938 
	C508.924316,240.810486 508.340912,237.082260 508.255371,233.492905 
	C508.144287,228.831116 508.228333,224.164673 508.228577,219.000366 
z"/>
<path fill="#9DE771" opacity="1.000000" stroke="none" 
	d="
M955.111572,200.037781 
	C953.919434,199.808563 952.834473,199.857651 952.449768,199.362564 
	C952.041321,198.836807 952.806274,198.150848 953.538574,198.215027 
	C957.202454,198.536224 957.232361,196.007401 956.825378,193.671371 
	C955.826111,187.936539 958.088135,185.615067 963.827576,184.496887 
	C974.004517,182.514160 974.189697,182.108414 973.821960,192.154968 
	C973.647766,196.916138 974.865479,198.948257 979.795776,198.171860 
	C981.626038,197.883636 983.539734,198.125259 985.415344,198.125259 
	C985.417603,198.744583 985.419861,199.363892 985.422058,199.983215 
	C982.943970,199.983215 980.455627,200.124252 977.990356,199.946213 
	C975.139587,199.740356 973.799072,200.460220 973.870239,203.726257 
	C974.080383,213.369537 973.931824,223.020096 974.015686,232.667023 
	C974.038879,235.341431 974.151245,238.308533 977.590576,238.925049 
	C980.945740,239.526489 982.582031,237.146866 984.179871,234.637878 
	C985.227295,232.993134 984.452087,230.538651 986.618713,229.417511 
	C986.721069,236.434921 983.741211,240.596802 977.444031,242.308823 
	C973.831909,243.290863 970.226318,243.218292 966.616272,242.290359 
	C959.678528,240.507080 957.090942,237.475372 956.964355,230.355392 
	C956.813599,221.874664 956.957825,213.388824 956.825867,204.907516 
	C956.800476,203.276123 957.866943,201.157745 955.111572,200.037781 
z"/>
<path fill="#9CE670" opacity="1.000000" stroke="none" 
	d="
M687.017578,229.657471 
	C687.001221,221.365585 687.000610,213.532715 686.995667,205.699829 
	C686.992432,200.588211 686.989624,200.588211 681.901794,198.816956 
	C687.463013,199.013184 687.419189,195.519333 686.957764,192.018021 
	C686.408936,187.853195 687.844238,185.891708 692.168091,184.960495 
	C703.812927,182.452606 703.883362,182.245865 703.968567,193.937607 
	C703.991943,197.156891 704.844116,198.427216 708.188721,198.204178 
	C710.593445,198.043808 713.126892,197.618744 716.095947,198.896912 
	C713.202454,200.714493 710.417542,199.984665 707.890503,199.892746 
	C704.746582,199.778366 703.927856,200.941696 703.983582,203.936539 
	C704.153992,213.099579 703.943054,222.269852 704.124634,231.432480 
	C704.183838,234.419174 703.680664,238.372421 708.060486,238.915100 
	C712.159424,239.423004 713.705688,236.123276 715.020081,232.949875 
	C715.509583,231.767990 715.425598,230.297150 716.762878,229.511200 
	C717.020996,237.497971 712.338623,242.438843 704.089600,242.926712 
	C693.268738,243.566666 688.059937,239.655014 687.017578,229.657471 
z"/>
<path fill="#9EE772" opacity="1.000000" stroke="none" 
	d="
M915.933289,203.023376 
	C918.294250,204.759003 918.147522,202.010193 918.951233,201.278259 
	C923.031555,197.562073 928.096130,196.309753 932.714905,198.386032 
	C937.064575,200.341370 939.027893,205.818192 937.145264,210.744812 
	C935.565979,214.877594 931.755432,216.799637 927.532898,215.593948 
	C924.723450,214.791763 922.829285,213.024246 922.358398,210.117538 
	C921.948853,207.589264 922.469238,205.506088 925.622559,205.048523 
	C926.741821,204.886108 927.091736,203.727982 926.808777,202.661591 
	C926.448303,201.303131 925.334778,200.947250 924.072754,201.034286 
	C921.219360,201.231064 919.571960,203.221924 918.445618,205.440796 
	C916.942078,208.402679 915.924500,211.575546 915.954163,215.010086 
	C916.002991,220.669815 915.931641,226.330505 915.925232,231.990814 
	C915.917175,239.084396 915.923340,239.084396 922.722351,241.577484 
	C912.513855,241.577484 903.478210,241.577484 894.442566,241.577484 
	C899.558105,240.789856 898.921875,237.075256 898.887146,233.502258 
	C898.796570,224.179855 898.883728,214.855865 898.841309,205.532791 
	C898.827332,202.453583 900.152039,198.276260 893.513855,199.580154 
	C898.140198,197.466431 902.207520,198.391281 906.152100,198.141937 
	C907.976196,198.026657 909.838074,198.313568 911.639832,198.082626 
	C915.335999,197.608887 916.397766,199.362930 915.933289,203.023376 
z"/>
<path fill="#3C493E" opacity="1.000000" stroke="none" 
	d="
M173.198257,297.552612 
	C155.437454,298.886139 137.920624,299.744934 120.386551,298.262421 
	C119.263603,298.167511 118.164284,297.793091 116.730972,297.379883 
	C114.992195,294.375458 113.576416,291.539825 112.146545,288.348450 
	C113.316269,286.459747 115.091209,285.864868 116.792175,285.302856 
	C129.507462,281.101471 142.144882,276.671753 155.220825,272.370178 
	C158.274139,272.774780 159.028564,275.160583 160.536591,277.291351 
	C163.767166,283.000275 168.087189,287.444946 171.676880,292.428986 
	C172.731522,293.893280 174.229874,295.165314 173.198257,297.552612 
z"/>
<path fill="#9FE774" opacity="1.000000" stroke="none" 
	d="
M638.397339,200.240463 
	C644.404358,196.387451 650.377441,196.693802 656.384949,199.024857 
	C659.266785,200.143097 661.840332,200.661270 664.073730,196.572006 
	C665.160217,201.889282 664.813049,206.181427 664.482178,210.764847 
	C662.128540,210.234756 661.974731,208.336716 661.192749,207.062057 
	C657.813049,201.553299 653.065613,198.911285 646.540466,199.781342 
	C643.764893,200.151443 641.135498,200.822937 640.827026,204.219116 
	C640.545105,207.322830 642.719849,208.537521 645.237976,209.424713 
	C650.083252,211.131866 655.233215,211.879059 659.800354,214.494064 
	C666.010864,218.050079 668.006531,222.214783 666.993835,230.494049 
	C666.297241,236.189163 662.523315,240.376740 656.716858,242.041275 
	C651.914124,243.418045 647.124817,243.419067 642.517578,241.544952 
	C638.995911,240.112427 635.721069,238.901291 632.456909,243.566422 
	C632.456909,237.427994 632.456909,232.451828 632.456909,226.810410 
	C634.613220,228.535202 634.951538,230.556473 635.818787,232.203186 
	C639.662720,239.501999 646.915039,242.524490 654.756287,240.069855 
	C657.005432,239.365784 658.634033,238.166306 658.971130,235.700638 
	C659.323486,233.123703 657.929016,231.521729 655.721863,230.710892 
	C651.519287,229.167053 647.184265,227.972931 643.018066,226.342728 
	C630.483765,221.438080 628.326233,209.871185 638.397339,200.240463 
z"/>
<path fill="#3C493E" opacity="1.000000" stroke="none" 
	d="
M99.968628,239.427704 
	C106.718384,239.265182 113.042046,236.938156 119.602028,236.194168 
	C126.470848,235.415146 133.277542,234.088409 140.547974,233.002106 
	C144.306274,237.774628 144.412689,243.758011 147.099991,249.189560 
	C147.917160,253.714951 151.216339,257.167694 150.282288,262.027130 
	C146.193649,264.376862 142.605728,262.287628 138.539536,261.553772 
	C124.664688,258.525269 112.299309,252.935791 100.420486,245.301636 
	C100.079552,243.293289 99.995483,241.574036 99.968628,239.427704 
z"/>
<path fill="#364338" opacity="1.000000" stroke="none" 
	d="
M137.727997,260.268768 
	C141.722672,260.718170 145.278885,262.395752 149.635895,261.977478 
	C154.607025,263.948914 155.086609,268.434662 156.260330,272.677368 
	C141.889450,278.659668 127.253319,282.933960 112.508636,287.985901 
	C109.449974,283.531403 108.116158,278.511078 106.226692,273.357849 
	C113.796028,269.139771 122.039932,267.144989 129.979614,264.329742 
	C132.672592,263.374847 135.240448,262.341705 137.727997,260.268768 
z"/>
<path fill="#414E43" opacity="1.000000" stroke="none" 
	d="
M345.296814,317.852356 
	C333.244446,312.780243 321.487396,307.575256 309.757965,302.308868 
	C309.084534,302.006470 308.635956,301.203247 308.018585,300.279602 
	C317.863251,298.338959 327.940460,298.392242 337.830078,296.215729 
	C346.264893,294.359375 354.141144,290.856445 362.931335,289.017517 
	C358.893402,299.521423 352.622925,308.847473 345.296814,317.852356 
z"/>
<path fill="#303C31" opacity="1.000000" stroke="none" 
	d="
M137.602417,259.996826 
	C137.203049,264.519958 133.274460,264.482483 130.052139,265.505859 
	C122.355934,267.950165 114.992081,271.417511 106.623512,272.990173 
	C102.899254,264.229401 101.633659,254.993286 100.088547,245.425476 
	C107.362404,248.305954 114.628387,251.462036 121.736938,254.939880 
	C126.687004,257.361694 131.995087,258.484833 137.602417,259.996826 
z"/>
<path fill="#9FE774" opacity="1.000000" stroke="none" 
	d="
M542.586914,311.224182 
	C543.007629,311.627411 543.006226,311.955963 543.007019,312.530762 
	C540.694031,312.904480 538.150208,312.734619 537.183044,315.506012 
	C536.325867,317.962341 537.906189,319.054169 539.716370,320.583618 
	C542.624512,323.040771 540.547729,329.298676 536.493591,331.482300 
	C532.117188,333.839447 526.289856,332.790985 523.938477,329.223389 
	C521.172668,325.026978 522.630066,318.037384 527.029175,315.090424 
	C531.589722,312.035309 536.797119,311.232056 542.586914,311.224182 
z"/>
<path fill="#9FE774" opacity="1.000000" stroke="none" 
	d="
M63.289291,252.841431 
	C62.734989,252.639465 62.519085,252.382599 62.069511,252.019058 
	C63.830624,249.890900 66.541435,249.280716 69.481422,248.796188 
	C67.530182,250.126312 65.578934,251.456421 63.289291,252.841431 
z"/>
<path fill="#9DE771" opacity="1.000000" stroke="none" 
	d="
M546.000122,357.002747 
	C545.975098,357.391541 545.891846,357.726929 545.617920,358.243042 
	C545.190796,358.383057 544.954346,358.342346 544.712402,357.942230 
	C544.845703,357.387695 544.984375,357.192566 545.473816,356.920227 
	C545.824524,356.843018 545.941772,356.949280 546.000122,357.002747 
z"/>
<path fill="#9DE771" opacity="1.000000" stroke="none" 
	d="
M545.265503,358.261169 
	C545.273254,358.709869 545.076721,358.962952 544.647339,359.328674 
	C544.327087,359.336548 544.197327,359.198853 543.880981,358.847107 
	C543.824097,358.425934 543.953735,358.218719 544.430542,357.893738 
	C544.777649,357.775970 545.103699,358.098572 545.265503,358.261169 
z"/>
<path fill="#556257" opacity="1.000000" stroke="none" 
	d="
M322.648529,182.037415 
	C327.365112,186.871567 331.717926,191.764618 336.306519,196.867737 
	C338.249084,197.692062 338.013672,199.135941 337.902344,200.863785 
	C329.872925,206.299026 321.993256,211.437073 314.135590,216.613525 
	C287.240082,234.331802 260.365112,252.081192 233.481064,269.816833 
	C232.086884,270.736572 230.838196,271.823181 229.335815,273.183960 
	C226.708984,274.124268 225.235748,272.507172 223.727676,271.309601 
	C215.113800,264.469360 207.015182,257.086731 200.277023,248.330109 
	C196.437180,243.340027 196.893784,238.833984 202.437561,234.554840 
	C213.490067,226.023575 224.786896,217.831375 236.924805,210.831696 
	C253.525391,201.258545 270.920593,193.337692 288.351349,185.470581 
	C290.469696,184.514496 292.725220,183.173676 294.792175,185.300934 
	C296.787140,187.354080 295.564819,189.682755 294.763641,191.844345 
	C293.587646,195.017303 291.102295,197.687576 290.696320,202.284546 
	C302.000214,195.701416 311.759644,188.278580 322.648529,182.037415 
z"/>
<path fill="#4E5B50" opacity="1.000000" stroke="none" 
	d="
M322.879517,181.672165 
	C321.781433,184.916458 318.688385,185.486374 316.410400,187.043381 
	C308.603607,192.379318 300.667450,197.525803 292.799103,202.772263 
	C291.816498,203.427444 290.794800,204.429398 289.699310,203.501175 
	C288.566376,202.541229 288.738617,200.953033 289.300659,199.771271 
	C290.647308,196.939758 292.469788,194.315994 293.623962,191.418655 
	C294.286072,189.756470 296.017914,187.747101 294.112946,185.889359 
	C292.140503,183.965881 290.406006,185.924622 288.702942,186.680298 
	C271.085480,194.497391 253.577805,202.556305 236.866547,212.198715 
	C224.932632,219.084610 213.821487,227.227829 202.964951,235.667786 
	C197.347900,240.034500 197.782257,243.470306 202.464050,249.073654 
	C210.063065,258.168457 218.567078,266.192444 228.647430,272.968201 
	C235.626236,276.650635 241.926331,280.877014 248.961029,284.517639 
	C249.282471,285.014709 249.354858,285.246460 249.246796,285.794495 
	C244.859848,287.917786 240.439056,288.807129 235.474167,289.216003 
	C227.747330,283.804962 218.904602,281.531647 210.866745,277.601166 
	C204.459274,274.467957 197.850922,271.692200 191.301208,268.826294 
	C188.500427,267.600800 186.057037,266.070526 188.669418,262.489075 
	C190.575531,259.875885 188.129379,258.960297 186.670288,257.850769 
	C178.301804,251.487305 169.133499,246.407730 159.948135,241.358551 
	C153.972412,238.073761 147.589264,235.638367 141.280151,232.244156 
	C139.270081,225.744751 138.584015,219.320511 138.005280,212.442719 
	C141.244064,210.532425 144.162933,212.070831 147.043945,213.129715 
	C160.495621,218.073700 173.117371,224.735107 185.463333,231.949585 
	C186.308670,232.443558 187.101807,233.065018 188.563690,233.304962 
	C187.943268,228.155563 183.444717,224.623215 183.770050,219.269318 
	C185.039597,216.457870 186.972015,214.790543 189.273315,213.402466 
	C207.658401,202.313019 227.100677,193.340790 246.920059,185.238770 
	C263.344269,178.524689 280.066681,172.539780 296.660156,166.240128 
	C302.192932,164.139648 302.853455,164.566406 303.036957,169.896423 
	C303.090271,171.445999 302.100372,173.624207 303.954010,174.401047 
	C305.563354,175.075562 306.916290,173.346649 308.262329,172.425430 
	C309.358063,171.675552 310.464203,170.940857 311.898621,170.046341 
	C316.457062,173.057068 319.007843,177.755936 322.879517,181.672165 
z"/>
<path fill="#9AE56E" opacity="1.000000" stroke="none" 
	d="
M336.407532,202.382339 
	C336.659027,200.609238 336.672577,199.249725 336.614197,197.484009 
	C357.390381,187.202591 378.254761,177.361633 399.082245,167.443192 
	C423.212585,155.951889 447.308533,144.388260 471.430542,132.879364 
	C472.309967,132.459778 473.307220,132.287231 474.620514,131.995560 
	C471.186737,136.741898 465.774292,139.484024 460.960632,142.903290 
	C426.082001,167.678360 391.090759,192.295273 356.071533,216.871582 
	C353.711121,218.528122 352.748657,220.930740 351.313873,223.121078 
	C347.320557,229.217178 343.340424,235.321899 339.261047,241.751953 
	C339.068451,242.766479 338.671509,243.113800 337.675903,242.793945 
	C335.931335,237.214737 336.696808,231.726929 335.590271,225.979477 
	C335.653778,217.940521 334.678131,210.335419 336.407532,202.382339 
z"/>
<path fill="#667468" opacity="1.000000" stroke="none" 
	d="
M337.548645,242.941986 
	C338.199432,242.874847 338.513336,242.694809 338.997101,242.297729 
	C345.657013,238.715546 350.712067,233.429443 356.429138,229.038956 
	C359.920380,226.357788 361.808380,225.864273 364.983215,229.990952 
	C368.169983,234.133072 370.897858,238.736069 374.935913,242.663422 
	C365.429535,247.393875 357.174866,254.101334 348.330566,259.865723 
	C331.429993,270.880859 314.593750,281.995392 297.793549,293.163055 
	C296.081909,294.300873 293.738861,294.894257 293.039612,297.644043 
	C280.193817,297.245544 268.181305,293.403168 256.209015,288.293945 
	C262.409271,285.064545 269.570068,284.137756 276.123840,280.093475 
	C277.201202,279.053040 278.058929,278.911255 279.479309,278.452026 
	C280.287231,278.198883 280.490295,278.144196 280.998840,278.021057 
	C282.727264,277.729645 284.077271,277.313202 285.510620,276.285645 
	C285.925873,275.998413 286.093842,275.887085 286.521973,275.624207 
	C287.310913,275.199615 287.858368,274.965546 288.655823,274.570160 
	C289.100067,274.357544 289.280426,274.277222 289.731232,274.077515 
	C290.548492,273.694641 291.056213,273.372498 291.736053,272.729065 
	C306.830292,262.274109 321.564850,251.856018 337.548645,242.941986 
z"/>
<path fill="#9AE56E" opacity="1.000000" stroke="none" 
	d="
M475.002411,132.003540 
	C475.360077,131.754654 475.715027,131.501862 476.069946,131.249069 
	C476.158600,131.376404 476.247223,131.503738 476.335876,131.631073 
	C476.051910,131.750702 475.767975,131.870346 475.237732,131.990768 
	C474.991455,131.991562 474.999664,131.999634 475.002411,132.003540 
z"/>
<path fill="#536055" opacity="1.000000" stroke="none" 
	d="
M141.004654,232.253616 
	C149.166473,233.560867 156.125305,237.965378 163.269699,241.760712 
	C172.199844,246.504684 180.926056,251.671082 188.933228,257.939026 
	C191.029160,259.579712 193.527634,260.794495 189.621536,263.283630 
	C187.015350,264.944427 188.534821,266.327728 190.464676,267.183319 
	C203.214630,272.835876 215.997925,278.413300 228.738617,284.086487 
	C231.073853,285.126282 234.033020,285.413208 235.006348,288.867798 
	C230.148804,291.004669 224.966110,291.261353 219.465530,292.105469 
	C204.659912,285.213287 190.009109,278.912384 175.409088,272.498230 
	C173.124802,271.494690 170.858902,270.441895 168.745987,269.105408 
	C167.433365,268.275116 166.080002,267.104309 166.584534,265.505707 
	C167.831177,261.555878 165.153229,260.089844 162.564072,258.550720 
	C157.429031,255.498230 152.407120,252.209885 146.323242,250.212585 
	C143.882980,244.749146 142.164429,239.361023 140.998535,233.400482 
	C140.984558,233.003113 141.000702,232.503525 141.004654,232.253616 
z"/>
<path fill="#465348" opacity="1.000000" stroke="none" 
	d="
M183.717377,218.792953 
	C185.268631,223.691986 188.114044,227.658279 190.021622,232.057266 
	C190.475494,233.103928 191.275787,234.147888 190.086670,235.202591 
	C188.850937,236.298660 188.069733,235.250702 187.094360,234.619446 
	C173.849533,226.047287 159.733444,219.197098 145.013489,213.580444 
	C143.034943,212.825485 140.863342,212.576523 138.393311,212.049637 
	C138.004501,207.022202 137.907837,202.035965 138.034698,197.055420 
	C138.125992,193.471146 139.360489,191.552872 143.685867,192.668182 
	C152.545197,194.952545 160.974930,198.360291 169.399078,201.792862 
	C171.642273,202.706894 173.813828,203.099228 176.578461,202.999878 
	C180.023010,207.833298 180.153076,213.861023 183.717377,218.792953 
z"/>
<path fill="#FFFFFF" opacity="1.000000" stroke="none" 
	d="
M457.966888,336.023865 
	C457.966888,334.361847 457.793793,333.163635 458.003296,332.036530 
	C458.429626,329.742798 456.471832,326.350952 459.279114,325.330444 
	C462.576691,324.131714 466.246796,325.140076 469.134796,327.478241 
	C474.798065,332.063354 474.863312,353.288177 469.259888,357.846313 
	C466.466309,360.118744 463.122955,360.204620 459.751129,359.940216 
	C457.399902,359.755890 458.006104,357.867950 457.994507,356.509003 
	C457.937622,349.846375 457.967590,343.182953 457.966888,336.023865 
z"/>
<path fill="#FFFFFF" opacity="1.000000" stroke="none" 
	d="
M457.966919,311.975891 
	C457.966919,306.508179 457.795044,301.528137 458.053131,296.570496 
	C458.153778,294.636932 456.351746,291.492554 460.059174,290.984436 
	C463.436310,290.521576 466.848175,290.868713 468.631348,294.447662 
	C469.352325,295.894745 469.875610,297.590088 469.930328,299.191528 
	C470.099915,304.154572 470.046234,309.127319 469.986328,314.095184 
	C469.959656,316.308868 469.145233,318.322571 467.710663,320.012817 
	C465.593262,322.507568 462.651489,323.579712 459.665710,322.820221 
	C456.540894,322.025360 458.375671,318.969604 458.016541,316.937744 
	C457.760956,315.491577 457.966919,313.963837 457.966919,311.975891 
z"/>
<path fill="#5B685C" opacity="1.000000" stroke="none" 
	d="
M315.221863,335.680176 
	C308.401093,337.870850 301.778931,339.660828 294.434692,340.006714 
	C291.398438,335.579773 286.317017,335.248199 282.326263,333.389923 
	C265.809113,325.698578 249.043472,318.541382 232.378464,311.166779 
	C225.861877,308.283112 219.351349,305.384003 212.881134,302.398590 
	C211.439423,301.733368 209.624756,301.401764 208.985016,299.151123 
	C216.026672,297.251343 223.132523,295.717804 230.626984,294.209747 
	C234.061066,296.927551 237.730530,298.543793 241.385666,300.152435 
	C264.543884,310.344604 287.575775,320.821320 310.763397,330.947632 
	C312.782349,331.829315 315.473846,332.222260 315.221863,335.680176 
z"/>
<path fill="#667468" opacity="1.000000" stroke="none" 
	d="
M244.402863,338.011780 
	C234.896408,336.050903 226.370895,332.414734 217.374481,329.035492 
	C209.906631,324.685272 202.808472,320.375732 195.361176,316.024109 
	C190.724136,311.520477 185.075348,308.567688 181.126373,303.270538 
	C182.921722,301.778717 185.092255,302.074402 187.599655,301.999146 
	C188.062668,303.310333 188.585770,304.263977 189.792252,304.799377 
	C205.727036,311.870850 221.665115,318.935028 237.590332,326.027954 
	C245.782776,329.676758 253.966446,333.346375 262.111908,337.098206 
	C263.145508,337.574280 265.114288,337.788940 264.386108,339.688416 
	C263.819122,341.167450 262.212555,341.150635 260.896423,340.926208 
	C255.525742,340.010468 250.171890,338.995972 244.402863,338.011780 
z"/>
<path fill="#616E63" opacity="1.000000" stroke="none" 
	d="
M337.904449,242.586243 
	C322.716614,253.178741 307.547760,263.302612 292.174438,273.690613 
	C291.564117,274.424927 290.976837,274.469757 290.190369,274.765869 
	C289.950043,274.920624 289.487579,274.970795 289.256470,274.997009 
	C288.592468,275.436401 288.016144,275.465973 287.262848,275.778931 
	C287.046326,275.956543 286.988281,275.987640 286.962372,276.007935 
	C285.461182,276.888824 283.909241,277.568512 281.949280,278.086792 
	C281.246155,278.307373 280.854248,278.461487 280.218964,278.820923 
	C279.971588,279.016113 280.009308,279.013977 280.019867,278.998352 
	C278.978577,279.851532 277.688995,279.293945 276.252075,279.787781 
	C275.966644,280.010712 275.999573,280.013855 276.008789,280.000610 
	C268.655640,280.701599 261.945801,284.072754 254.690384,285.225708 
	C253.088348,285.480316 251.494064,285.783752 249.481262,286.087769 
	C249.049438,285.928284 249.032562,285.745789 249.003128,285.288574 
	C247.072845,281.908051 249.488846,280.429199 251.427216,278.979553 
	C256.349579,275.298248 261.752930,272.337799 266.865936,268.937653 
	C287.596161,255.152054 308.220673,241.206131 329.174683,227.759766 
	C331.336426,226.372559 333.348022,224.223801 336.666321,225.761978 
	C337.904114,231.332199 337.967346,236.721664 337.904449,242.586243 
z"/>
<path fill="#536055" opacity="1.000000" stroke="none" 
	d="
M315.373474,335.952850 
	C314.942261,333.923340 313.456879,333.489777 311.834778,332.771088 
	C286.271637,321.444519 260.742676,310.040619 235.244370,298.568817 
	C233.583267,297.821472 231.176987,297.584290 231.021729,294.584595 
	C236.425888,292.879303 241.836151,291.523346 247.635590,290.181824 
	C250.911621,294.474915 255.882156,295.477325 260.093689,297.398102 
	C279.837646,306.402710 299.764709,315.004944 319.582855,323.848511 
	C323.135284,325.433685 327.297577,325.961121 329.954529,329.702576 
	C325.753510,333.233582 320.292816,333.467804 315.373474,335.952850 
z"/>
<path fill="#5B685C" opacity="1.000000" stroke="none" 
	d="
M146.156525,250.350311 
	C155.047974,250.425354 161.174469,256.733246 168.284073,261.029022 
	C169.009094,261.467102 169.217102,262.648560 168.697647,263.285889 
	C165.581802,267.108795 168.821533,268.012848 171.352386,269.144257 
	C185.541794,275.487610 199.743134,281.804382 213.958939,288.088318 
	C215.803940,288.903870 217.601883,289.696777 218.889984,291.793762 
	C212.761261,293.827209 206.305756,294.383820 199.432983,295.046875 
	C191.894211,290.457184 183.884903,287.786804 176.264755,284.313934 
	C171.200104,282.005737 166.427399,278.850861 160.356216,278.076111 
	C158.855682,276.455383 157.709625,274.912567 156.303467,273.183044 
	C154.249954,269.437744 152.456558,265.879181 150.365417,262.143982 
	C149.774368,257.886078 146.703751,254.734589 146.156525,250.350311 
z"/>
<path fill="#616E63" opacity="1.000000" stroke="none" 
	d="
M160.036407,278.348328 
	C162.029465,275.786621 164.173752,277.438660 165.921783,278.189606 
	C176.230606,282.618225 186.438248,287.282257 196.681305,291.864044 
	C197.785049,292.357758 198.682938,293.028656 198.958801,294.669861 
	C190.702362,296.895844 182.167587,296.672363 173.377365,297.873840 
	C171.757904,292.284546 166.986343,289.145447 164.102112,284.738464 
	C162.781631,282.720825 161.111053,280.920288 160.036407,278.348328 
z"/>
<path fill="#FFFFFF" opacity="1.000000" stroke="none" 
	d="
M544.884521,357.545654 
	C544.467773,357.864899 544.200928,358.025360 543.835754,358.445251 
	C542.229675,359.007874 540.649353,358.664764 540.450073,357.216248 
	C539.733337,352.005341 538.895020,346.681580 541.402283,341.694702 
	C542.250671,340.007416 544.074036,338.853271 545.950439,339.393311 
	C547.806030,339.927307 546.896912,341.932526 546.934937,343.269775 
	C547.056885,347.557526 547.226685,351.871460 545.827881,356.439758 
	C545.546814,357.000488 545.269104,357.157928 544.884521,357.545654 
z"/>
<path fill="#FFFFFF" opacity="1.000000" stroke="none" 
	d="
M849.127014,209.438049 
	C849.477844,207.016403 849.679199,205.016113 850.169006,203.089157 
	C850.747437,200.813034 852.189819,199.214401 854.688538,199.111816 
	C857.283508,199.005280 858.645935,200.598892 859.156189,202.954300 
	C859.540894,204.730118 859.963257,206.543793 859.982788,208.344803 
	C860.071167,216.499481 860.021057,224.655655 860.023987,232.811279 
	C860.024658,234.658524 859.835876,236.465103 859.005859,238.155228 
	C858.135193,239.928070 856.874329,241.025238 854.756470,241.060287 
	C852.589661,241.096146 851.361389,239.963638 850.582703,238.133850 
	C849.595642,235.814453 849.048828,233.410904 849.065002,230.864624 
	C849.109375,223.873901 849.095764,216.882782 849.127014,209.438049 
z"/>
<path fill="#5C695E" opacity="1.000000" stroke="none" 
	d="
M336.999390,225.529739 
	C334.387604,225.491837 332.505676,226.955460 330.572083,228.233978 
	C308.691864,242.701630 286.821014,257.183533 264.934509,271.641663 
	C260.642456,274.477020 256.307678,277.248535 251.964905,280.005859 
	C250.354431,281.028381 248.960480,282.132019 248.998322,284.642517 
	C241.764236,282.356598 235.132584,278.672272 229.146988,273.307251 
	C228.921112,270.661713 230.927933,270.075409 232.387314,269.115143 
	C255.349350,254.006134 278.349274,238.954712 301.299652,223.828079 
	C310.963318,217.458755 320.504639,210.903824 330.168915,204.535477 
	C331.905182,203.391373 333.480194,201.615448 336.289856,201.978271 
	C336.779083,209.666916 336.912689,217.365097 336.999390,225.529739 
z"/>
<path fill="#6D7A6F" opacity="1.000000" stroke="none" 
	d="
M280.819946,278.171082 
	C282.577545,276.718170 284.363098,276.257385 286.577698,276.011444 
	C285.899872,278.123993 283.950256,278.672058 281.528259,279.029114 
	C280.990234,278.865173 280.802002,278.684448 280.819946,278.171082 
z"/>
<path fill="#9CE471" opacity="1.000000" stroke="none" 
	d="
M276.336853,280.055542 
	C276.771515,278.745544 278.104340,279.024628 279.660400,278.928528 
	C279.217804,280.232880 277.894073,279.963379 276.336853,280.055542 
z"/>
<path fill="#6D7A6F" opacity="1.000000" stroke="none" 
	d="
M287.339233,275.952332 
	C287.508698,275.647827 287.971100,275.339111 288.729431,275.026825 
	C288.560974,275.331573 288.096558,275.639862 287.339233,275.952332 
z"/>
<path fill="#6D7A6F" opacity="1.000000" stroke="none" 
	d="
M290.256744,274.933350 
	C290.426788,274.616791 290.903564,274.312927 291.675171,273.981934 
	C291.501160,274.285187 291.032288,274.615631 290.256744,274.933350 
z"/>
<path fill="#9CE471" opacity="1.000000" stroke="none" 
	d="
M280.768982,277.965759 
	C281.070160,278.037170 281.114166,278.235962 281.168335,278.740295 
	C280.977142,279.046844 280.775848,279.047821 280.273071,279.032440 
	C280.151672,278.708435 280.331757,278.400787 280.768982,277.965759 
z"/>
</svg>